<svg xmlns="http://www.w3.org/2000/svg" xmlns:xlink="http://www.w3.org/1999/xlink" version="1.0" x="0" y="0" width="2400" height="737.486587201431" viewBox="91.77492126464844 100.96252044677735 156.45015747070312 48.07495529174805" preserveAspectRatio="xMidYMid meet" color-interpolation-filters="sRGB"><g><defs><linearGradient id="92" x1="0%" y1="0%" x2="100%" y2="0%"><stop offset="0%" stop-color="#fa71cd"></stop> <stop offset="100%" stop-color="#9b59b6"></stop></linearGradient><linearGradient id="93" x1="0%" y1="0%" x2="100%" y2="0%"><stop offset="0%" stop-color="#f9d423"></stop> <stop offset="100%" stop-color="#f83600"></stop></linearGradient><linearGradient id="94" x1="0%" y1="0%" x2="100%" y2="0%"><stop offset="0%" stop-color="#0064d2"></stop> <stop offset="100%" stop-color="#1cb0f6"></stop></linearGradient><linearGradient id="95" x1="0%" y1="0%" x2="100%" y2="0%"><stop offset="0%" stop-color="#f00978"></stop> <stop offset="100%" stop-color="#3f51b1"></stop></linearGradient><linearGradient id="96" x1="0%" y1="0%" x2="100%" y2="0%"><stop offset="0%" stop-color="#7873f5"></stop> <stop offset="100%" stop-color="#ec77ab"></stop></linearGradient><linearGradient id="97" x1="0%" y1="0%" x2="100%" y2="0%"><stop offset="0%" stop-color="#f9d423"></stop> <stop offset="100%" stop-color="#e14fad"></stop></linearGradient><linearGradient id="98" x1="0%" y1="0%" x2="100%" y2="0%"><stop offset="0%" stop-color="#009efd"></stop> <stop offset="100%" stop-color="#2af598"></stop></linearGradient><linearGradient id="99" x1="0%" y1="0%" x2="100%" y2="0%"><stop offset="0%" stop-color="#ffcc00"></stop> <stop offset="100%" stop-color="#00b140"></stop></linearGradient><linearGradient id="100" x1="0%" y1="0%" x2="100%" y2="0%"><stop offset="0%" stop-color="#d51007"></stop> <stop offset="100%" stop-color="#ff8177"></stop></linearGradient><linearGradient id="102" x1="0%" y1="0%" x2="100%" y2="0%"><stop offset="0%" stop-color="#a2b6df"></stop> <stop offset="100%" stop-color="#0c3483"></stop></linearGradient><linearGradient id="103" x1="0%" y1="0%" x2="100%" y2="0%"><stop offset="0%" stop-color="#7ac5d8"></stop> <stop offset="100%" stop-color="#eea2a2"></stop></linearGradient><linearGradient id="104" x1="0%" y1="0%" x2="100%" y2="0%"><stop offset="0%" stop-color="#00ecbc"></stop> <stop offset="100%" stop-color="#007adf"></stop></linearGradient><linearGradient id="105" x1="0%" y1="0%" x2="100%" y2="0%"><stop offset="0%" stop-color="#b88746"></stop> <stop offset="100%" stop-color="#fdf5a6"></stop></linearGradient></defs><g fill="#fff" class="iconlettersvg-g iconlettersvg" transform="translate(93.30874633789062,102.49810843577143)"><g><g class="tp-name"><g transform="scale(1)"><g transform="translate(0, 0)"><g class="name-imagesvg"><g><rect fill="#fff" fill-opacity="0" stroke-width="2" x="0" y="0" width="40.88835484422381" height="45" class="image-rect"></rect> <svg filter="url(#colors466304204)" x="0" y="0" width="40.88835484422381" height="45" filtersec="colorsf6204712405" class="image-svg-svg primary" style="overflow: visible;"><svg xmlns="http://www.w3.org/2000/svg" viewBox="0 0 51.61 56.83"><path fill="#000000" d="M4.585 55.73L14.76 45.555l1.096 1.096L5.681 56.826zM.22 55.741l12.905-12.904 1.096 1.096L1.316 56.837zM.006 51.579l13.18-13.18 1.09 1.088-13.181 13.18zM.006 47.209l13.18-13.18 1.089 1.088-13.18 13.18zM.006 42.839l13.18-13.18 1.089 1.088-13.18 13.18zM37.583 25.875l10.932-10.931 1.09 1.089-10.933 10.931zM37.045 22.05l9.836-9.836 1.096 1.096-9.836 9.836zM36.125 18.6l9.015-9.015 1.09 1.089-9.016 9.015zM34.62 15.742l8.472-8.471L44.18 8.36l-8.471 8.47zM32.565 13.41l8.195-8.195 1.096 1.096-8.195 8.195zM30.075 11.531l7.948-7.948 1.096 1.096-7.948 7.948z"></path><path d="M49.33 16.48l-11.1 11.1v.54a24.67 24.67 0 0 1-1.08 7.57 16.14 16.14 0 0 1-3.11 5.7 13.38 13.38 0 0 1-5 3.59 16.75 16.75 0 0 1-6.68 1.26h-2.79l-10 10h12.84a32.72 32.72 0 0 0 12-2.1 27 27 0 0 0 9.21-5.87 26.38 26.38 0 0 0 5.93-8.93 29.58 29.58 0 0 0 2.1-11.26 29.48 29.48 0 0 0-2.1-11.22z" fill="#000000"></path><path d="M13.68 10h8.73a16.75 16.75 0 0 1 6.68 1.26 13.12 13.12 0 0 1 1.5.75l7.91-7.88a31 31 0 0 0-4.13-2A32.51 32.51 0 0 0 22.41 0H.55v42.09L13.68 29z" fill="#000000"></path></svg></svg> <defs><filter id="colors466304204"><feColorMatrix type="matrix" values="0 0 0 0 0.99609375  0 0 0 0 0.99609375  0 0 0 0 0.99609375  0 0 0 1 0" class="icon-feColorMatrix "></feColorMatrix></filter> <filter id="colorsf6204712405"><feColorMatrix type="matrix" values="0 0 0 0 0.99609375  0 0 0 0 0.99609375  0 0 0 0 0.99609375  0 0 0 1 0" class="icon-fecolormatrix"></feColorMatrix></filter> <filter id="colorsb740093589"><feColorMatrix type="matrix" values="0 0 0 0 0  0 0 0 0 0  0 0 0 0 0  0 0 0 1 0" class="icon-fecolormatrix"></feColorMatrix></filter></defs></g></g></g><g transform="translate(40.88835484422381, 0)"><g class="name-imagesvg"><g><rect fill="#fff" fill-opacity="0" stroke-width="2" x="0" y="0" width="29.562121147127076" height="45" class="image-rect"></rect> <svg filter="url(#colors6231541235)" x="0" y="0" width="29.562121147127076" height="45" filtersec="colorsf4354163236" class="image-svg-svg primary" style="overflow: visible;"><svg xmlns="http://www.w3.org/2000/svg" viewBox="0 0 37.33 56.83"><path fill="#000000" d="M13.68 10.59h11.49L35.22.55H.55v34.67l13.13-13.14V10.59zM34.147 10.046l2.086-2.086 1.096 1.096-2.086 2.086zM29.779 10.04l6.456-6.455L37.33 4.68l-6.456 6.456z"></path><path fill="#000000" d="M25.413 10.045L35.453.005 36.55 1.1 26.509 11.14z"></path><path fill="#000000" d="M31.37 33.38v-5.81l-5.81 5.81h5.81zM13.68 45.26L2.11 56.83h34.67V46.78h-23.1v-1.52z"></path><path fill="#000000" d="M21.647 32.673l9.178-9.178 1.096 1.096-9.178 9.178zM.003 54.326l13.18-13.18 1.097 1.096L1.1 55.422zM17.276 32.675l9.56-9.56 1.096 1.096-9.56 9.56zM.003 49.956l13.18-13.18 1.09 1.089-13.181 13.18zM0 45.583l22.465-22.465 1.096 1.096L1.096 46.679zM.002 41.208l18.095-18.095 1.096 1.096L1.098 42.304zM0 36.843l13.725-13.725 1.096 1.096L1.096 37.939z"></path></svg></svg> <defs><filter id="colors6231541235"><feColorMatrix type="matrix" values="0 0 0 0 0.99609375  0 0 0 0 0.99609375  0 0 0 0 0.99609375  0 0 0 1 0" class="icon-fecolormatrix"></feColorMatrix></filter> <filter id="colorsf4354163236"><feColorMatrix type="matrix" values="0 0 0 0 0.99609375  0 0 0 0 0.99609375  0 0 0 0 0.99609375  0 0 0 1 0" class="icon-fecolormatrix"></feColorMatrix></filter> <filter id="colorsb1021281284"><feColorMatrix type="matrix" values="0 0 0 0 0  0 0 0 0 0  0 0 0 0 0  0 0 0 1 0" class="icon-fecolormatrix"></feColorMatrix></filter></defs></g></g></g><g transform="translate(70.45047599135088, 0)"><g class="name-imagesvg"><g><rect fill="#fff" fill-opacity="0" stroke-width="2" x="0" y="0" width="29.562121147127076" height="45" class="image-rect"></rect> <svg filter="url(#colors2188168980)" x="0" y="0" width="29.562121147127076" height="45" filtersec="colorsf8731401853" class="image-svg-svg primary" style="overflow: visible;"><svg xmlns="http://www.w3.org/2000/svg" viewBox="0 0 37.33 56.83"><path fill="#000000" d="M13.68 10.59h11.49L35.22.55H.55v34.67l13.13-13.14V10.59zM34.147 10.046l2.086-2.086 1.096 1.096-2.086 2.086zM29.779 10.04l6.456-6.455L37.33 4.68l-6.456 6.456z"></path><path fill="#000000" d="M25.413 10.045L35.453.005 36.55 1.1 26.509 11.14z"></path><path fill="#000000" d="M31.37 33.38v-5.81l-5.81 5.81h5.81zM13.68 45.26L2.11 56.83h34.67V46.78h-23.1v-1.52z"></path><path fill="#000000" d="M21.647 32.673l9.178-9.178 1.096 1.096-9.178 9.178zM.003 54.326l13.18-13.18 1.097 1.096L1.1 55.422zM17.276 32.675l9.56-9.56 1.096 1.096-9.56 9.56zM.003 49.956l13.18-13.18 1.09 1.089-13.181 13.18zM0 45.583l22.465-22.465 1.096 1.096L1.096 46.679zM.002 41.208l18.095-18.095 1.096 1.096L1.098 42.304zM0 36.843l13.725-13.725 1.096 1.096L1.096 37.939z"></path></svg></svg> <defs><filter id="colors2188168980"><feColorMatrix type="matrix" values="0 0 0 0 0.99609375  0 0 0 0 0.99609375  0 0 0 0 0.99609375  0 0 0 1 0" class="icon-fecolormatrix"></feColorMatrix></filter> <filter id="colorsf8731401853"><feColorMatrix type="matrix" values="0 0 0 0 0.99609375  0 0 0 0 0.99609375  0 0 0 0 0.99609375  0 0 0 1 0" class="icon-fecolormatrix"></feColorMatrix></filter> <filter id="colorsb2987881438"><feColorMatrix type="matrix" values="0 0 0 0 0  0 0 0 0 0  0 0 0 0 0  0 0 0 1 0" class="icon-fecolormatrix"></feColorMatrix></filter></defs></g></g></g><g transform="translate(100.01259713847796, 0)"><g class="name-imagesvg"><g><rect fill="#fff" fill-opacity="0" stroke-width="2" x="0" y="0" width="11.375660827857105" height="45" class="image-rect"></rect> <svg filter="url(#colors3073098800)" x="0" y="0" width="11.375660827857105" height="45" filtersec="colorsf711470768" class="image-svg-svg primary" style="overflow: visible;"><svg xmlns="http://www.w3.org/2000/svg" viewBox="0 0 14.23 56.28"><path fill="#000000" d="M13.68 0H.55v23.12L13.68 9.99V0zM0 42.898l13.13-13.13 1.09 1.088L1.087 43.987zM0 38.528l13.13-13.131 1.096 1.096-13.13 13.131zM0 34.158l13.13-13.131 1.096 1.096-13.13 13.13zM-.001 29.788L13.13 16.657l1.096 1.096-13.131 13.13zM-.001 25.418L13.13 12.287l1.096 1.096-13.131 13.13z"></path><path fill="#000000" d="M.55 46.3v9.98h13.13V33.16L.55 46.3z"></path></svg></svg> <defs><filter id="colors3073098800"><feColorMatrix type="matrix" values="0 0 0 0 0.99609375  0 0 0 0 0.99609375  0 0 0 0 0.99609375  0 0 0 1 0" class="icon-fecolormatrix"></feColorMatrix></filter> <filter id="colorsf711470768"><feColorMatrix type="matrix" values="0 0 0 0 0.99609375  0 0 0 0 0.99609375  0 0 0 0 0.99609375  0 0 0 1 0" class="icon-fecolormatrix"></feColorMatrix></filter> <filter id="colorsb6537882220"><feColorMatrix type="matrix" values="0 0 0 0 0  0 0 0 0 0  0 0 0 0 0  0 0 0 1 0" class="icon-fecolormatrix"></feColorMatrix></filter></defs></g></g></g><g transform="translate(111.38825796633506, 0)"><g class="name-imagesvg"><g><rect fill="#fff" fill-opacity="0" stroke-width="2" x="0" y="0" width="41.994254429973985" height="45" class="image-rect"></rect> <svg filter="url(#colors327414776)" x="0" y="0" width="41.994254429973985" height="45" filtersec="colorsf8303666652" class="image-svg-svg primary" style="overflow: visible;"><svg xmlns="http://www.w3.org/2000/svg" viewBox="0 0 53.54 57.38"><path d="M11.51 56.83a2.9 2.9 0 0 0 1.93-.64 5.15 5.15 0 0 0 1.24-1.45l3.7-6.42-8.51 8.51zM16 2A2.92 2.92 0 0 0 14.93.87a4.19 4.19 0 0 0-1.87-.32H0L16.72 26.8l8.76-8.8zM40.64.55A3 3 0 0 0 38 2.17l-4.66 8L43 .55z" fill="#000000"></path><path d="M28 38.71l9.18 16a4.66 4.66 0 0 0 1.26 1.47 3.24 3.24 0 0 0 2.06.62h13.04L37 29.73z" fill="#000000"></path><path fill="#000000" d="M26.289 36.276l9.015-9.016 1.096 1.096-9.015 9.016zM6.28 56.282l15.633-15.634 1.09 1.09L7.367 57.37zM1.914 56.28l39.952-39.95 1.089 1.088L3.003 57.37zM.468 53.366L50.185 3.649l1.089 1.09L1.557 54.454zM7.699 41.755L49.446.007l1.09 1.089L8.787 42.844zM28.736 16.347L45.084 0l1.089 1.09-16.348 16.347zM15.214 29.87l10.79-10.79 1.09 1.089-10.79 10.79z"></path></svg></svg> <defs><filter id="colors327414776"><feColorMatrix type="matrix" values="0 0 0 0 0.99609375  0 0 0 0 0.99609375  0 0 0 0 0.99609375  0 0 0 1 0" class="icon-fecolormatrix"></feColorMatrix></filter> <filter id="colorsf8303666652"><feColorMatrix type="matrix" values="0 0 0 0 0.99609375  0 0 0 0 0.99609375  0 0 0 0 0.99609375  0 0 0 1 0" class="icon-fecolormatrix"></feColorMatrix></filter> <filter id="colorsb2587776733"><feColorMatrix type="matrix" values="0 0 0 0 0  0 0 0 0 0  0 0 0 0 0  0 0 0 1 0" class="icon-fecolormatrix"></feColorMatrix></filter></defs></g></g></g></g></g></g> </g><defs v-gra="od"></defs></g></svg>